<?xml version="1.0" encoding="utf-8"?>
<!-- Svg Vector Icons : http://www.onlinewebfonts.com/icon -->
<!DOCTYPE svg PUBLIC "-//W3C//DTD SVG 1.1//EN" "http://www.w3.org/Graphics/SVG/1.1/DTD/svg11.dtd">
<svg version="1.1" xmlns="http://www.w3.org/2000/svg" xmlns:xlink="http://www.w3.org/1999/xlink" x="0px" y="0px" viewBox="0 0 1000 1000" enable-background="new 0 0 1000 1000" xml:space="preserve">
<metadata> Svg Vector Icons : http://www.onlinewebfonts.com/icon </metadata>
<g><path d="M959.4,408.1c0-118.4-96-214.4-214.4-214.4s-214.4,96-214.4,214.4S745,806.3,745,806.3S959.4,526.5,959.4,408.1z M653.1,408.1c0-50.7,41.2-91.9,91.9-91.9s91.9,41.2,91.9,91.9S795.7,500,745,500S653.1,458.8,653.1,408.1z"/><path d="M897.9,867.5H592.1c-33.9,0-61.4,27.2-61.4,61.3c0,33.8,26.8,61.3,61.4,61.3h305.9c33.9,0,61.4-27.2,61.4-61.3C959.4,894.9,932.5,867.5,897.9,867.5z"/><path d="M407.9,10H102.1c-33.9,0-61.4,27.3-61.4,61.3v857.4c0,33.9,26.8,61.3,61.4,61.3h305.9c33.9,0,61.4-27.3,61.4-61.3V71.3C469.4,37.4,442.5,10,407.9,10z M224.4,745H101.9V622.5h122.5V745z M224.4,500H101.9V377.5h122.5V500z M224.4,255H101.9V132.5h122.5V255z M408.1,745H285.6V622.5h122.5V745z M408.1,500H285.6V377.5h122.5V500z M408.1,255H285.6V132.5h122.5V255z"/></g>
</svg>