<?xml version="1.0" encoding="utf-8"?>
<!-- Svg Vector Icons : http://www.onlinewebfonts.com/icon -->
<!DOCTYPE svg PUBLIC "-//W3C//DTD SVG 1.1//EN" "http://www.w3.org/Graphics/SVG/1.1/DTD/svg11.dtd">
<svg version="1.1" xmlns="http://www.w3.org/2000/svg" xmlns:xlink="http://www.w3.org/1999/xlink" x="0px" y="0px" viewBox="0 0 1000 1000" enable-background="new 0 0 1000 1000" xml:space="preserve">
<metadata> Svg Vector Icons : http://www.onlinewebfonts.com/icon </metadata>
<g><g transform="translate(0.000000,512.000000) scale(0.100000,-0.100000)"><path d="M3059.9,5008.1c-565.1-97.7-1024.8-534.4-1155-1101.4c-21.1-88.1-162.8-2302.4-162.8-2538c0-28.7,23-40.2,111.1-57.5c641.7-124.5,1522.8-611,2484.4-1375.3c254.8-203,595.7-492.3,613-521c24.9-40.2,74.7-13.4,226,120.7c218.4,195.4,687.7,567,961.6,762.4c760.4,545.9,1448.1,898.4,1955.7,1003.7c82.4,17.2,153.2,34.5,157.1,36.4c3.8,3.8-24.9,559.3-63.2,1235.5c-55.6,992.2-76.6,1256.6-105.4,1375.3c-126.4,490.4-475,852.4-986.5,1022.9l-134.1,46l-1905.9,1.9C4008.1,5021.5,3109.7,5015.8,3059.9,5008.1z M5241.7,4567.6c116.8-51.7,262.4-195.4,314.1-312.2c67-151.3,65.1-367.8-7.7-515.3c-57.5-118.8-159-220.3-285.4-287.3c-68.9-36.4-111.1-44.1-264.3-44.1s-195.4,7.7-264.3,44.1c-126.4,67-227.9,168.6-285.4,287.3c-72.8,145.6-76.6,365.9-9.6,511.4c47.9,105.4,149.4,220.3,250.9,281.6C4839.4,4627,5075,4640.4,5241.7,4567.6z M4736,3320.6l51.7-55.5V2474c0-844.7,0-842.8-95.8-894.5c-32.6-17.2-1854.2-229.9-1969.1-229.9c-26.8,0-74.7,28.7-111.1,65.1l-65.1,65.1V2269v789.2l63.2,61.3l61.3,61.3l919.4,101.5c505.7,53.6,932.8,103.4,948.2,105.4C4601.9,3403,4684.3,3374.2,4736,3320.6z M6314.4,3293.8c513.3-57.5,950.1-105.4,969.2-105.4c21.1,0,65.1-28.7,101.5-65.1l65.1-65.1v-772c0-829.4,0-831.3-99.6-904.1l-51.7-38.3l-915.6,99.6c-1132,124.5-1057.4,113-1120.6,176.2l-53.6,51.7v794.9c0,781.5,0,794.9,40.2,844.7c34.5,42.1,82.4,74.7,128.3,86.2C5379.6,3399.1,5801,3351.2,6314.4,3293.8z"/><path d="M4868.2,4155.7c-72.8-61.3-91.9-137.9-53.6-226c28.7-72.8,113-128.3,187.7-128.3c74.7,0,162.8,67,187.7,143.7C5253.2,4134.7,5021.4,4286,4868.2,4155.7z"/><path d="M1715.3,864.9c-5.7-34.5-42.1-645.5-80.4-1358.1c-67-1245.1-69-1302.5-38.3-1436.6c67-298.8,243.3-530.6,522.9-689.6c145.6-82.4,291.1-111.1,565.1-111.1c134.1,0,245.2-3.8,245.2-9.6s-314.1-402.2-699.2-883c-613-768.1-699.2-883.1-699.2-940.5c0-130.2,82.4-216.4,206.9-216.4c74.7,0,116.8,34.5,272,229.9l137.9,172.4h2850.2h2850.2l137.9-172.4c76.6-95.8,157.1-185.8,178.1-201.1c84.3-59.4,235.6-15.3,279.7,80.5c59.4,128.3,67.1,116.8-678.1,1047.8c-385,480.8-699.1,877.3-699.1,883s109.2,9.6,245.2,9.6c134.1,0,281.6,9.6,329.5,21.1c256.7,59.4,534.4,275.8,658.9,515.3c137.9,262.4,137.9,245.2,59.4,1685.6c-36.4,701.1-72.8,1310.2-78.5,1354.2l-9.6,78.5l-118.8-26.8C7459.8,740.4,6440.8,100.7,5337.5-866.7c-249-218.4-300.7-249-385-227.9c-24.9,5.8-160.9,111.1-302.7,233.7C3533.1,114.1,2537,738.5,1843.6,897.5l-118.8,26.8L1715.3,864.9z M3167.2-732.6c136-49.8,281.6-189.6,344.8-333.3c46-101.5,53.6-136,46-264.3c-15.3-339-264.3-582.3-597.6-584.2c-293.1-1.9-522.9,180.1-597.6,471.2c-74.7,285.4,88.1,595.7,369.7,704.9C2851.2-690.4,3044.6-688.5,3167.2-732.6z M7266.4-740.3c136-49.8,266.2-176.2,331.4-317.9c182-398.4-118.8-858.1-561.2-856.2c-419.5,3.8-706.8,417.6-568.9,823.7c42.1,124.5,227.9,314.1,350.5,358.2C6944.5-688.5,7139.9-692.3,7266.4-740.3z M6695.5-2935.4l164.7-206.9l-930.9-5.7c-511.4-1.9-1350.4-1.9-1861.8,0l-930.9,5.7l164.7,206.9l166.7,205h1530.5h1530.5L6695.5-2935.4z M7346.8-3751.4l157.1-195.4l-1252.7-5.7c-689.6-1.9-1815.9-1.9-2505.5,0l-1252.7,5.7l157.1,195.4l155.2,197.3h2193.2h2193.2L7346.8-3751.4z"/><path d="M2862.6-1125.3c-70.9-38.3-105.4-99.6-105.4-183.9c0-201.1,268.2-273.9,369.7-99.6c53.6,88.1,42.1,166.6-32.6,241.3C3025.5-1098.4,2939.3-1083.1,2862.6-1125.3z"/><path d="M6902.4-1167.4c-72.8-72.8-84.3-147.5-38.3-239.4c57.5-111.1,227.9-132.1,319.9-42.1c90,92,69,262.4-42.1,319.9C7049.9-1083.1,6975.2-1094.6,6902.4-1167.4z"/></g></g>
</svg>